<svg xmlns="http://www.w3.org/2000/svg" width="26" height="30" viewBox="0 0 26 30">
  <path id="apple" d="M25.738,47.853a6.224,6.224,0,0,1,3.454-5.68,7.488,7.488,0,0,0-5.851-2.987c-2.452-.188-5.132,1.386-6.113,1.386-1.036,0-3.412-1.319-5.277-1.319C8.1,39.314,4,42.234,4,48.175a16.239,16.239,0,0,0,.995,5.438C5.879,56.071,9.07,62.1,12.4,62c1.741-.04,2.97-1.2,5.236-1.2,2.2,0,3.336,1.2,5.277,1.2,3.357-.047,6.244-5.526,7.087-7.99a6.608,6.608,0,0,1-4.262-6.155Zm-3.91-11A6.176,6.176,0,0,0,23.486,32a7.4,7.4,0,0,0-4.69,2.337,6.292,6.292,0,0,0-1.768,4.816A5.869,5.869,0,0,0,21.828,36.856Z" transform="translate(-4 -32)" fill="#5204a5"/>
</svg>
