<svg xmlns="http://www.w3.org/2000/svg" width="22.735" height="20.382" viewBox="0 0 22.735 20.382">
  <path id="cart-shopping-solid_1_" data-name="cart-shopping-solid (1)" d="M0,.955A.953.953,0,0,1,.955,0H2.767A2.229,2.229,0,0,1,4.781,1.274H21.142A1.591,1.591,0,0,1,22.679,3.28L21.047,9.343a2.871,2.871,0,0,1-2.767,2.122H6.8L7.01,12.6a.959.959,0,0,0,.939.776H19.427a.955.955,0,0,1,0,1.911H7.95a2.863,2.863,0,0,1-2.814-2.329L3.081,2.17a.317.317,0,0,0-.314-.259H.955A.953.953,0,0,1,0,.955ZM5.1,18.471a1.911,1.911,0,1,1,1.911,1.911A1.911,1.911,0,0,1,5.1,18.471ZM18.471,16.56a1.911,1.911,0,1,1-1.911,1.911A1.911,1.911,0,0,1,18.471,16.56Z" fill="#4a4a4a"/>
</svg>
