<svg xmlns="http://www.w3.org/2000/svg" xmlns:xlink="http://www.w3.org/1999/xlink" width="103.746" height="40.761" viewBox="0 0 103.746 40.761">
  <defs>
    <clipPath id="clip-path">
      <rect id="Rectangle_2792" data-name="Rectangle 2792" width="103.746" height="40.761" fill="#f2e8fe"/>
    </clipPath>
  </defs>
  <g id="Group_656" data-name="Group 656" clip-path="url(#clip-path)">
    <path id="Path_1441" data-name="Path 1441" d="M207.282.151A7.045,7.045,0,0,0,205.792,0h-.032c-.167,0-.334.008-.51.024a7.271,7.271,0,0,0-2.04.438,1.711,1.711,0,0,0-.279.112.029.029,0,0,0-.024.008,7.6,7.6,0,0,0-2.016,1.283V1.856l-.008-.008a7.344,7.344,0,0,0-2.5,5.338,2.426,2.426,0,0,1,.024.351v.024c0,.088,0,.168-.008.255a2.316,2.316,0,0,1-.343,1.123,1.046,1.046,0,0,1-.1.152,2.3,2.3,0,0,1-.789.7A2.628,2.628,0,0,1,193.258,7a2.6,2.6,0,0,1,2.1-2.024,2.546,2.546,0,0,1,2.159.614,8.358,8.358,0,0,1,2.374-4.47A7.268,7.268,0,0,0,196,.008a7.377,7.377,0,0,0-7.314,8.342A7.282,7.282,0,0,0,196,14.756a6.5,6.5,0,0,0,4.167-1.338,2.175,2.175,0,0,0,.263-.207l.016-.016a4.025,4.025,0,0,0,.375-.358,9.363,9.363,0,0,0,2.255-5.227,2.862,2.862,0,0,1,2.669-2.669,2.786,2.786,0,0,1,2.741,2.8v6.947H210.9a2.258,2.258,0,0,0,2.255-2.255V7.378A7.4,7.4,0,0,0,207.282.151" transform="translate(-109.408 0)" fill="#f2e8fe"/>
    <path id="Path_1442" data-name="Path 1442" d="M11.607,64.222a11.87,11.87,0,0,1,0-23.734,11.87,11.87,0,0,1,0,23.734m0-19.75a7.888,7.888,0,0,0,0,15.766,7.888,7.888,0,0,0,0-15.766" transform="translate(0 -23.484)" fill="#f2e8fe"/>
    <path id="Path_1443" data-name="Path 1443" d="M68.339,63.982a1.992,1.992,0,0,1-1.992-1.992V42.261a1.992,1.992,0,0,1,3.576-1.207L81.315,56V42.175a1.992,1.992,0,1,1,3.984,0V61.9a1.992,1.992,0,0,1-3.576,1.208L70.331,48.161V61.99a1.992,1.992,0,0,1-1.992,1.992" transform="translate(-38.484 -23.307)" fill="#f2e8fe"/>
    <path id="Path_1444" data-name="Path 1444" d="M135.834,64.188H124.586a1.992,1.992,0,0,1-1.992-1.992V42.382a1.992,1.992,0,0,1,1.992-1.992h11.508a1.992,1.992,0,0,1,0,3.984h-9.516V60.2h9.256a1.992,1.992,0,0,1,0,3.984" transform="translate(-71.109 -23.427)" fill="#f2e8fe"/>
    <path id="Path_1445" data-name="Path 1445" d="M136.378,67.036H125.822a1.992,1.992,0,0,1,0-3.984h10.556a1.992,1.992,0,0,1,0,3.984" transform="translate(-71.826 -36.572)" fill="#f2e8fe"/>
    <path id="Path_1446" data-name="Path 1446" d="M177.934,64.9a1.992,1.992,0,0,1-1.992-1.992v-19.3a1.992,1.992,0,0,1,3.984,0v19.3a1.992,1.992,0,0,1-1.992,1.992" transform="translate(-102.052 -24.144)" fill="#f2e8fe"/>
    <path id="Path_1447" data-name="Path 1447" d="M175.729,44.623H164.394a1.992,1.992,0,0,1,0-3.984h11.335a1.992,1.992,0,1,1,0,3.984" transform="translate(-94.199 -23.572)" fill="#f2e8fe"/>
  </g>
</svg>
