<svg xmlns="http://www.w3.org/2000/svg" width="14.405" height="14.191" viewBox="0 0 14.405 14.191">
  <g id="icons" transform="translate(-1.984 -2.191)">
    <g id="user" transform="translate(1.984 2)">
      <circle id="Ellipse_8" data-name="Ellipse 8" cx="4" cy="4" r="4" transform="translate(3.202 0.191)" fill="#4a4a4a"/>
      <path id="Path_2534" data-name="Path 2534" d="M16.234,17.881a6.554,6.554,0,0,0-3.452-3.02,1.61,1.61,0,0,0-1.294.072,4.415,4.415,0,0,1-4.6,0,1.618,1.618,0,0,0-1.294,0,6.554,6.554,0,0,0-3.452,3.02,1.419,1.419,0,0,0,1.366,2.013H14.868A1.457,1.457,0,0,0,16.234,17.881Z" transform="translate(-1.984 -5.584)" fill="#4a4a4a"/>
    </g>
  </g>
</svg>
