<svg xmlns="http://www.w3.org/2000/svg" width="98.258" height="35.811" viewBox="0 0 98.258 35.811">
  <path id="Path_1529" data-name="Path 1529" d="M72.958,31.343a1.389,1.389,0,0,1-.926.268,2.375,2.375,0,0,1-.653-.079l.046-.463a1.727,1.727,0,0,0,.653.12.8.8,0,0,0,.463-.12.375.375,0,0,0,.176-.329.361.361,0,0,0-.213-.333,4.881,4.881,0,0,0-.463-.171A1.185,1.185,0,0,1,71.578,30a.68.68,0,0,1-.213-.542.764.764,0,0,1,.292-.625,1.347,1.347,0,0,1,.88-.255,2.731,2.731,0,0,1,.565.06l-.042.435a2.055,2.055,0,0,0-.574-.088c-.384,0-.574.139-.574.417a.38.38,0,0,0,.218.338,3.8,3.8,0,0,0,.463.171c.463.153.685.407.685.768a.81.81,0,0,1-.319.662Zm4.064-.074a1.625,1.625,0,0,1-1.074.343,3.24,3.24,0,0,1-.875-.111l.069-.523a2.162,2.162,0,0,0,.838.162,1.028,1.028,0,0,0,.6-.157.593.593,0,0,0,.259-.523A.56.56,0,0,0,76.559,30a4.754,4.754,0,0,0-.62-.282,2.116,2.116,0,0,1-.616-.352.926.926,0,0,1-.282-.694,1,1,0,0,1,.361-.81,1.532,1.532,0,0,1,1.028-.319,3.106,3.106,0,0,1,.722.079l-.065.463a2.37,2.37,0,0,0-.685-.106c-.532,0-.8.208-.8.62a.546.546,0,0,0,.282.463,5.717,5.717,0,0,0,.63.287,2.176,2.176,0,0,1,.63.356.926.926,0,0,1,.282.69,1.1,1.1,0,0,1-.4.88Zm3.338-.111a1.329,1.329,0,0,1-1.042.463q-1.31,0-1.315-1.5a1.588,1.588,0,0,1,.384-1.1,1.333,1.333,0,0,1,1.046-.463,1.292,1.292,0,0,1,.926.338,1.551,1.551,0,0,1,.375,1.134,1.629,1.629,0,0,1-.375,1.12Zm-.977-2.143a.745.745,0,0,0-.574.25,1.157,1.157,0,0,0-.259.8q0,1.1.833,1.1a.7.7,0,0,0,.569-.264,1.236,1.236,0,0,0,.245-.829C80.2,29.367,79.929,29.015,79.383,29.015Zm2.088,2.541V27.251H82v4.305Zm3.351,0a3.124,3.124,0,0,1,.051-.616h0a1.037,1.037,0,0,1-1.032.671c-.588,0-.88-.315-.88-.926v-2.06h.523v1.889c0,.463.167.662.5.662a.717.717,0,0,0,.6-.329,1.361,1.361,0,0,0,.231-.819V28.64h.532v2.93Zm2.963-.014a2.648,2.648,0,0,1-.593.06.778.778,0,0,1-.616-.2,1.06,1.06,0,0,1-.167-.68V29.038H85.8v-.412h.606v-.954l.528-.148v1.1h.824v.412h-.824v1.514a.954.954,0,0,0,.088.463.375.375,0,0,0,.333.13,1.324,1.324,0,0,0,.37-.051Zm1.222-3.6a.37.37,0,0,1-.5,0A.324.324,0,0,1,88.4,27.7a.338.338,0,0,1,.106-.25.356.356,0,0,1,.5,0,.338.338,0,0,1,.106.25.329.329,0,0,1-.106.241Zm-.514,3.615v-2.93h.528v2.93Zm3.625-.4a1.319,1.319,0,0,1-1.037.463q-1.319,0-1.319-1.5a1.611,1.611,0,0,1,.384-1.1,1.342,1.342,0,0,1,1.046-.463,1.292,1.292,0,0,1,.926.338,1.551,1.551,0,0,1,.375,1.134,1.629,1.629,0,0,1-.375,1.12Zm-.977-2.143a.75.75,0,0,0-.574.25,1.157,1.157,0,0,0-.259.8q0,1.1.833,1.1a.713.713,0,0,0,.574-.264,1.264,1.264,0,0,0,.245-.829q0-1.055-.824-1.055Zm3.916,2.541V29.672q0-.667-.5-.667a.713.713,0,0,0-.6.329,1.389,1.389,0,0,0-.236.819v1.389h-.532V28.626h.514a3.176,3.176,0,0,1-.046.616h0a1.032,1.032,0,0,1,1.032-.671c.588,0,.884.315.884.926v2.046Zm2.879-.213a1.421,1.421,0,0,1-.926.268,2.4,2.4,0,0,1-.653-.079l.051-.463a1.685,1.685,0,0,0,.648.12.829.829,0,0,0,.463-.12.384.384,0,0,0,.176-.329.37.37,0,0,0-.213-.333c-.056-.028-.208-.083-.463-.171A1.176,1.176,0,0,1,96.557,30a.694.694,0,0,1-.213-.542.764.764,0,0,1,.292-.625,1.356,1.356,0,0,1,.88-.255,2.7,2.7,0,0,1,.565.06l-.042.435a2.032,2.032,0,0,0-.574-.088c-.38,0-.574.139-.574.417a.38.38,0,0,0,.218.338,4.4,4.4,0,0,0,.463.171c.463.153.685.407.685.768a.81.81,0,0,1-.319.662ZM11.507,0V35.811A19.683,19.683,0,0,1,11.507,0Zm11.48,19.363a16.239,16.239,0,0,1-3.421-.333V4.972l3.12-.06q8.055,0,8.059,7.059,0,7.393-7.758,7.393Z" transform="translate(0.002)" fill="#fef6f9"/>
</svg>
