<svg xmlns="http://www.w3.org/2000/svg" width="12" height="12" viewBox="0 0 12 12">
  <path id="Path_1209" data-name="Path 1209" d="M416.9,47.9a6,6,0,1,1-6-6,6,6,0,0,1,6,6m-4.039-1.782c.039-.007.078-.148.1-.179a.516.516,0,0,1,.172-.117,1.774,1.774,0,0,1,.406-.094.4.4,0,0,1,.4.086c-.024-.024.164-.188.187-.2.071-.039.188-.023.235-.093a.767.767,0,0,0,.015-.172c-.133.015-.179-.11-.187-.219a.173.173,0,0,1-.047.063c.008-.118-.141-.032-.195-.047-.18-.047-.157-.172-.211-.305-.032-.07-.118-.094-.149-.164-.031-.047-.047-.148-.117-.156-.047-.008-.133.164-.148.156-.071-.039-.1.016-.157.047s-.086.015-.133.039c.141-.047-.062-.125-.132-.109.109-.032.054-.149-.008-.2h.039c-.016-.07-.234-.132-.3-.179a1.008,1.008,0,0,0-.523-.078c-.094.054.023.211.023.289s-.094.117-.094.195c0,.133.25.109.188.289-.039.109-.188.133-.25.219s.008.219.07.273-.109.125-.133.141c-.132.062-.234-.133-.265-.25-.024-.086-.031-.188-.125-.235-.047-.015-.2-.039-.227.008-.047-.117-.211-.164-.32-.2a.881.881,0,0,0-.453-.031c.054-.008-.016-.25-.149-.211a.85.85,0,0,0,.039-.242.446.446,0,0,1,.094-.18c.016-.031.188-.211.133-.219a.441.441,0,0,0,.391-.086c.07-.07.1-.187.171-.265.1-.117.227.031.336.039.157.008.149-.164.063-.242.1.007.016-.18-.039-.2s-.336.047-.195.1c-.032-.016-.219.375-.329.18-.031-.039-.046-.2-.117-.211s-.1.07-.125.117c.039-.1-.219-.172-.273-.18.117-.078.023-.164-.063-.211-.062-.039-.257-.07-.312-.007-.149.179.156.2.234.25.024.015.117.07.063.109-.047.023-.188.062-.2.094-.047.07.054.148-.016.218-.07-.07-.07-.187-.125-.265.07.086-.281.039-.273.039-.118,0-.305.078-.391-.039-.016-.031-.016-.211.031-.172-.07-.055-.117-.109-.164-.141a4.727,4.727,0,0,0-.734.321.14.14,0,0,0,.093-.008c.063-.024.118-.063.18-.094.078-.031.242-.125.328-.055.008-.015.032-.031.039-.039a1.876,1.876,0,0,1,.157.2.465.465,0,0,0-.235-.008c-.054.015-.148.031-.172.094.024.039.055.1.039.14-.1-.07-.179-.187-.32-.2a1.135,1.135,0,0,0-.172.008,5.082,5.082,0,0,0-1.836,1.734.222.222,0,0,0,.094.063c.078.023,0,.25.148.133a.109.109,0,0,1,.024.148c.008-.008.32.195.344.211.054.047.14.1.164.164a.139.139,0,0,1-.078.141c-.008-.016-.125-.133-.141-.1s0,.25.086.242c-.125.008-.07.492-.1.586,0,.008.016.008.016.008-.023.094.055.461.211.422-.1.023.18.383.219.406a1.013,1.013,0,0,1,.289.219c.078.109.078.273.187.359-.031.094.164.2.156.336-.015.008-.023.008-.039.016.039.109.188.109.243.211.031.062,0,.211.1.179a.867.867,0,0,0-.187-.484c-.047-.078-.094-.148-.133-.227a2.006,2.006,0,0,1-.078-.234c.031.008.2.07.187.094-.062.156.25.43.336.531.024.024.2.258.11.258.1,0,.242.156.289.234a2.246,2.246,0,0,1,.1.391c.047.156.266.227.391.3a3.022,3.022,0,0,0,.312.172c.164.062.2.008.344-.016.2-.031.227.195.391.281a.647.647,0,0,0,.429.086c-.047.016.164.336.18.36.07.093.2.14.281.234a.125.125,0,0,0,.055-.07c-.031.086.117.25.2.234s.11-.187.11-.25a.272.272,0,0,1-.383-.141c-.016-.039-.141-.257-.031-.257.148,0,.046-.118.031-.227s-.125-.18-.18-.273c-.047.093-.2.07-.25-.008,0,.023-.023.062-.023.094a.316.316,0,0,1-.118-.008c.016-.094.024-.211.047-.313.039-.14.3-.414-.039-.4a.2.2,0,0,0-.2.156c-.039.094-.023.18-.133.227a.687.687,0,0,1-.375-.024.7.7,0,0,1-.25-.515c-.007-.211.1-.4,0-.594.047-.039.094-.117.149-.156s.1.023.125-.071c-.024-.015-.055-.047-.063-.047.118.055.336-.078.438,0,.062.047.133.063.172-.015.007-.024-.055-.117-.024-.18.024.133.11.156.227.07.047.047.172.032.258.078s.1.141.2.024a.426.426,0,0,1,.093.187c.024.086.071.3.149.344.164.1.125-.172.109-.265-.008-.008-.008-.266-.015-.266-.25-.055-.157-.25-.016-.383a1.849,1.849,0,0,0,.281-.141c.071-.062.157-.171.117-.273a.1.1,0,0,0,.086-.07c-.023-.008-.117-.086-.132-.078.054-.032.046-.078.015-.125.078-.047.039-.133.117-.164.086.117.258-.016.172-.11.078-.109.258-.054.3-.156.117.031.031-.117.094-.2.054-.07.148-.07.219-.11,0,.008.195-.109.132-.117.133.016.4-.125.2-.242.031-.07-.071-.1-.141-.117.055-.016.125.016.172-.016.1-.07.031-.1-.055-.125a.472.472,0,0,0-.336.094c-.062.047-.1.133-.179.148m1.648,5.227c-.047-.047-.133-.031-.2-.062a1.061,1.061,0,0,0-.188-.063c.016-.156-.156-.211-.265-.289s-.164-.164-.313-.133c-.016.008-.172.063-.141.094a.648.648,0,0,0-.281-.172c-.125-.039-.211-.195-.336-.055-.062.063-.031.157-.062.219-.1-.086.094-.187.015-.281-.093-.11-.257.07-.336.117-.046.039-.1.055-.132.1a1.826,1.826,0,0,0-.086.179c-.024-.062-.157-.047-.164-.093.031.187.031.382.07.57a.441.441,0,0,1-.094.375c-.094.086-.211.179-.226.312-.016.094.007.18.093.2.008.118-.125.2-.117.329,0,.007.008.085.016.125a4.963,4.963,0,0,0,2.742-1.477" transform="translate(-404.903 -41.898)" fill="#fff"/>
</svg>
