<svg xmlns="http://www.w3.org/2000/svg" width="800.21" height="481.355" viewBox="0 0 800.21 481.355">
  <path id="Path_2540" data-name="Path 2540" d="M797.27,4.932A229.81,229.81,0,0,0,748.663,0h-1.041c-5.452,0-10.9.26-16.631.781a237.2,237.2,0,0,0-66.54,14.289,55.8,55.8,0,0,0-9.1,3.644.957.957,0,0,0-.781.26,247.96,247.96,0,0,0-65.759,41.839v-.26l-.26-.26a239.561,239.561,0,0,0-81.61,174.138,79.1,79.1,0,0,1,.781,11.439v.781c0,2.863,0,5.466-.26,8.316a75.566,75.566,0,0,1-11.179,36.647,34.119,34.119,0,0,1-3.37,4.946,75.2,75.2,0,0,1-25.742,22.865C397,356.331,326.052,297.6,339.821,228.457a84.869,84.869,0,0,1,68.622-66.019,83.064,83.064,0,0,1,70.43,20.015A272.664,272.664,0,0,1,556.332,36.647C518.644,12.727,474.462.26,429.226.26A240.409,240.409,0,0,0,248.594,81.87c-46.265,52.5-66.8,120.339-57.964,190.509,15.331,121.12,115.928,208.976,238.6,208.976,54.073,0,99.816-14.809,135.942-43.661,3.11-1.822,5.713-4.425,8.576-6.768l.521-.521a131.292,131.292,0,0,0,12.22-11.686c37.688-39.25,62.635-96.693,73.554-170.507,7.275-47.826,39.51-86.295,87.062-87.076,49.128-.781,89.418,42.113,89.418,91.5V479.273h78.747a73.657,73.657,0,0,0,73.568-73.554V240.678c0-115.928-82.4-212.867-191.564-235.746" transform="translate(-188.623)" fill="#f5f1fa"/>
</svg>
