<svg xmlns="http://www.w3.org/2000/svg" xmlns:xlink="http://www.w3.org/1999/xlink" width="94" height="13" viewBox="0 0 94 13">
  <defs>
    <clipPath id="clip-path">
      <rect width="94" height="13" fill="none"/>
    </clipPath>
    <linearGradient id="linear-gradient" x1="0.091" y1="0.378" x2="1" y2="0.5" gradientUnits="objectBoundingBox">
      <stop offset="0" stop-color="#fcb52c"/>
      <stop offset="1" stop-color="#ffc60c"/>
    </linearGradient>
  </defs>
  <g id="Repeat_Grid_2" data-name="Repeat Grid 2" clip-path="url(#clip-path)">
    <g transform="translate(-331.5 -2950.5)">
      <path id="Polygon_1" data-name="Polygon 1" d="M6.526,1.41a.5.5,0,0,1,.948,0L8.639,4.875a.5.5,0,0,0,.461.341l3.542.1a.5.5,0,0,1,.3.889L10.089,8.5a.5.5,0,0,0-.167.525l1.014,3.592a.5.5,0,0,1-.774.541L7.293,11.082a.5.5,0,0,0-.586,0L3.839,13.157a.5.5,0,0,1-.774-.541L4.079,9.024A.5.5,0,0,0,3.911,8.5L1.058,6.2a.5.5,0,0,1,.3-.889l3.542-.1a.5.5,0,0,0,.461-.341Z" transform="translate(331.5 2950.5)" fill="url(#linear-gradient)"/>
    </g>
    <g transform="translate(-311.5 -2950.5)">
      <path id="Polygon_1-2" data-name="Polygon 1" d="M6.526,1.41a.5.5,0,0,1,.948,0L8.639,4.875a.5.5,0,0,0,.461.341l3.542.1a.5.5,0,0,1,.3.889L10.089,8.5a.5.5,0,0,0-.167.525l1.014,3.592a.5.5,0,0,1-.774.541L7.293,11.082a.5.5,0,0,0-.586,0L3.839,13.157a.5.5,0,0,1-.774-.541L4.079,9.024A.5.5,0,0,0,3.911,8.5L1.058,6.2a.5.5,0,0,1,.3-.889l3.542-.1a.5.5,0,0,0,.461-.341Z" transform="translate(331.5 2950.5)" fill="url(#linear-gradient)"/>
    </g>
    <g transform="translate(-291.5 -2950.5)">
      <path id="Polygon_1-3" data-name="Polygon 1" d="M6.526,1.41a.5.5,0,0,1,.948,0L8.639,4.875a.5.5,0,0,0,.461.341l3.542.1a.5.5,0,0,1,.3.889L10.089,8.5a.5.5,0,0,0-.167.525l1.014,3.592a.5.5,0,0,1-.774.541L7.293,11.082a.5.5,0,0,0-.586,0L3.839,13.157a.5.5,0,0,1-.774-.541L4.079,9.024A.5.5,0,0,0,3.911,8.5L1.058,6.2a.5.5,0,0,1,.3-.889l3.542-.1a.5.5,0,0,0,.461-.341Z" transform="translate(331.5 2950.5)" fill="url(#linear-gradient)"/>
    </g>
    <g transform="translate(-271.5 -2950.5)">
      <path id="Polygon_1-4" data-name="Polygon 1" d="M6.526,1.41a.5.5,0,0,1,.948,0L8.639,4.875a.5.5,0,0,0,.461.341l3.542.1a.5.5,0,0,1,.3.889L10.089,8.5a.5.5,0,0,0-.167.525l1.014,3.592a.5.5,0,0,1-.774.541L7.293,11.082a.5.5,0,0,0-.586,0L3.839,13.157a.5.5,0,0,1-.774-.541L4.079,9.024A.5.5,0,0,0,3.911,8.5L1.058,6.2a.5.5,0,0,1,.3-.889l3.542-.1a.5.5,0,0,0,.461-.341Z" transform="translate(331.5 2950.5)" fill="url(#linear-gradient)"/>
    </g>
    <g transform="translate(-251.5 -2950.5)">
      <path id="Polygon_1-5" data-name="Polygon 1" d="M6.526,1.41a.5.5,0,0,1,.948,0L8.639,4.875a.5.5,0,0,0,.461.341l3.542.1a.5.5,0,0,1,.3.889L10.089,8.5a.5.5,0,0,0-.167.525l1.014,3.592a.5.5,0,0,1-.774.541L7.293,11.082a.5.5,0,0,0-.586,0L3.839,13.157a.5.5,0,0,1-.774-.541L4.079,9.024A.5.5,0,0,0,3.911,8.5L1.058,6.2a.5.5,0,0,1,.3-.889l3.542-.1a.5.5,0,0,0,.461-.341Z" transform="translate(331.5 2950.5)" fill="url(#linear-gradient)"/>
    </g>
  </g>
</svg>
