<svg xmlns="http://www.w3.org/2000/svg" width="50" height="34.237" viewBox="0 0 50 34.237">
  <g id="saudi-arabia" transform="translate(0 -88.276)">
    <path id="Path_1462" data-name="Path 1462" d="M46.255,122.513H3.745A3.832,3.832,0,0,1,0,118.6V92.19a3.832,3.832,0,0,1,3.745-3.914H46.255A3.832,3.832,0,0,1,50,92.19V118.6A3.832,3.832,0,0,1,46.255,122.513Z" transform="translate(0 0)" fill="#0c9e00"/>
    <g id="Group_671" data-name="Group 671" transform="translate(9.019 95.367)">
      <path id="Path_1463" data-name="Path 1463" d="M102.585,169.808c.09.576.438.757.74.733a.744.744,0,0,0,.67-.7v-1.976a.18.18,0,1,1,.359,0v1.985a.718.718,0,0,0,.985.667l.18-.072c.017,1.659-.084,3.117-.086,3.143a.359.359,0,0,0,.333.384h.026a.359.359,0,0,0,.358-.334c.008-.117.119-1.713.086-3.481l.109-.043a.36.36,0,0,1,.294.012,1.026,1.026,0,0,0,1.185-.192l.065-.065a1.073,1.073,0,0,0,.26-1.1l-.306-.918a.359.359,0,0,0,.266-.665l-.719-.359a.359.359,0,0,0-.5.435l.578,1.734a.358.358,0,0,1-.087.368l-.065.065a.309.309,0,0,1-.356.058,1.074,1.074,0,0,0-.747-.075,12.392,12.392,0,0,0-.439-3.1.359.359,0,0,0-.682.227,12.353,12.353,0,0,1,.412,3.136l-.43.172v-1.985a.9.9,0,0,0-1.8,0v1.739l-.367-1.811a.359.359,0,1,0-.7.143Z" transform="translate(-102.098 -165.329)" fill="#f5f5f5"/>
      <path id="Path_1464" data-name="Path 1464" d="M109.519,163.672a.359.359,0,0,0,.359-.359v-.359a.359.359,0,1,0-.719,0v.359A.359.359,0,0,0,109.519,163.672Z" transform="translate(-108.341 -162.212)" fill="#f5f5f5"/>
      <path id="Path_1465" data-name="Path 1465" d="M144.316,163.313h.359a.359.359,0,1,0,0-.719h-.359a.359.359,0,1,0,0,.719Z" transform="translate(-139.545 -162.212)" fill="#f5f5f5"/>
      <path id="Path_1466" data-name="Path 1466" d="M107.65,214.84l-1.8,1.078a.359.359,0,1,0,.37.616l1.8-1.078a.359.359,0,1,0-.37-.616Z" transform="translate(-105.219 -209.018)" fill="#f5f5f5"/>
      <path id="Path_1467" data-name="Path 1467" d="M121.786,171.789l.008-.006a.82.82,0,0,0,.166.338.706.706,0,0,0,.612.238.991.991,0,0,0,.747-.393.652.652,0,0,0,.076.045.68.68,0,0,0,.633-.02,1.364,1.364,0,0,0,.643-1.265.367.367,0,0,0-.374-.34.36.36,0,0,0-.344.373s.008.431-.252.589a.874.874,0,0,1-.112-.3.359.359,0,0,0-.714.059c0,.052-.012.513-.368.552a.877.877,0,0,1,0-.47.359.359,0,0,0-.552-.38l-.2.136c-.1-2.084-.315-4.512-.317-4.543a.359.359,0,1,0-.716.065c0,.033.257,2.842.335,4.988l-.055.053a.926.926,0,0,0-.786-.618,1.311,1.311,0,0,0-1.265.8.85.85,0,0,0,.275,1.072,1.2,1.2,0,0,0,1.072.049,3,3,0,0,1-.584,1.108,1.508,1.508,0,0,1-1.148.585.944.944,0,0,1-.7-.3,2.051,2.051,0,0,1-.38-1.286.359.359,0,0,0-.339-.378.352.352,0,0,0-.379.339,2.756,2.756,0,0,0,.564,1.806,1.648,1.648,0,0,0,1.2.534h.072a2.189,2.189,0,0,0,1.649-.836,3.716,3.716,0,0,0,.823-1.842,4.072,4.072,0,0,1-1.724,3.226,1.794,1.794,0,0,1-1.8.132,1.541,1.541,0,0,1-.791-1.52.359.359,0,1,0-.713-.089,2.256,2.256,0,0,0,1.186,2.253,2.442,2.442,0,0,0,1.088.259,2.659,2.659,0,0,0,1.409-.425,4.777,4.777,0,0,0,2.064-3.839C121.8,172.308,121.793,172.055,121.786,171.789Zm-2.166.37c-.064-.043-.014-.178,0-.205a.611.611,0,0,1,.5-.353h.029c.046,0,.168.016.22.287q.008.043.014.088C119.98,172.213,119.712,172.22,119.619,172.159Z" transform="translate(-114.511 -165.331)" fill="#f5f5f5"/>
      <path id="Path_1468" data-name="Path 1468" d="M102.585,244.12a.36.36,0,0,0-.491.127.734.734,0,0,1-.061.085l-.012-.03a2.417,2.417,0,0,1,.011-1.219.359.359,0,0,0-.694-.185,3.094,3.094,0,0,0,.011,1.656c.165.439.418.55.6.565l.048,0a.944.944,0,0,0,.716-.513A.359.359,0,0,0,102.585,244.12Z" transform="translate(-101.225 -233.987)" fill="#f5f5f5"/>
      <path id="Path_1469" data-name="Path 1469" d="M175.488,165.828a.356.356,0,0,0,.222-.077l1.811-1.422a.347.347,0,0,0,.059-.069.9.9,0,1,0-1.033-.08l-1.282,1.007a.359.359,0,0,0,.222.642Zm1.632-2.515a.18.18,0,1,1-.18.18A.18.18,0,0,1,177.12,163.313Z" transform="translate(-167.498 -162.212)" fill="#f5f5f5"/>
      <path id="Path_1470" data-name="Path 1470" d="M185.68,190.45a.359.359,0,0,0-.455.227,1.1,1.1,0,0,0,.14,1.06.725.725,0,0,0,.537.2,1.578,1.578,0,0,0,.5-.092.359.359,0,1,0-.227-.681,1.243,1.243,0,0,1-.293.063.688.688,0,0,1,.03-.328A.359.359,0,0,0,185.68,190.45Z" transform="translate(-176.483 -187.175)" fill="#f5f5f5"/>
      <path id="Path_1471" data-name="Path 1471" d="M227.874,163.87a.359.359,0,0,0,.446-.244l.21-.719a.359.359,0,0,0-.69-.2l-.21.719A.359.359,0,0,0,227.874,163.87Z" transform="translate(-214.565 -162.081)" fill="#f5f5f5"/>
      <path id="Path_1472" data-name="Path 1472" d="M206.208,160.645a.359.359,0,1,0,.363-.62c-.072-.042-.062-.161-.06-.185a.282.282,0,0,1,.165-.24.359.359,0,0,0-.214-.686.986.986,0,0,0-.665.845A.886.886,0,0,0,206.208,160.645Z" transform="translate(-194.993 -158.897)" fill="#f5f5f5"/>
      <path id="Path_1473" data-name="Path 1473" d="M179.113,232.189a.359.359,0,0,0-.067.712.675.675,0,0,1,.067.366.359.359,0,1,0,.719,0C179.832,232.2,179.143,232.189,179.113,232.189Z" transform="translate(-170.749 -224.621)" fill="#f5f5f5"/>
      <path id="Path_1474" data-name="Path 1474" d="M235.137,208.857a.827.827,0,0,0,.135.011,1.228,1.228,0,0,0,.85-.425.359.359,0,1,0-.508-.508c-.215.215-.331.22-.36.213-.069-.01-.131-.1-.145-.124a.359.359,0,0,0-.64.326A.971.971,0,0,0,235.137,208.857Z" transform="translate(-220.677 -202.777)" fill="#f5f5f5"/>
      <path id="Path_1475" data-name="Path 1475" d="M294.291,191.074l-.006-.016a.359.359,0,0,0-.681.23.8.8,0,0,0,.585.56.6.6,0,0,0,.079.005.88.88,0,0,0,.695-.48.359.359,0,1,0-.6-.4A1.082,1.082,0,0,1,294.291,191.074Z" transform="translate(-273.724 -187.519)" fill="#f5f5f5"/>
      <path id="Path_1476" data-name="Path 1476" d="M209.331,175.408c0-1.532-.067-2.97-.161-4.229a18.2,18.2,0,0,1,1.262,2.559.359.359,0,0,0,.336.233.364.364,0,0,0,.126-.023.359.359,0,0,0,.21-.463,23.8,23.8,0,0,0-2.078-3.938c-.2-1.935-.416-3.164-.42-3.186a.359.359,0,0,0-.707.128c0,.016.116.648.251,1.714-.276-.41-.532-.779-.748-1.083l.018.006a.359.359,0,1,0,.227-.681l-1.078-.359a.357.357,0,0,0-.405.131.361.361,0,0,0-.053.11.784.784,0,0,0-.75-.18.611.611,0,0,0-.343.639,3.246,3.246,0,0,0,.248,1.018c.212.6.344,1.04.12,1.25a.393.393,0,0,1-.368.13c-.222-.056-.441-.351-.587-.789a.331.331,0,0,0-.029-.05,6.11,6.11,0,0,0-.11-1.988.359.359,0,0,0-.7.141,3.42,3.42,0,0,1-.188,2.56.645.645,0,0,1-.537.243.207.207,0,0,1-.172-.08,3.462,3.462,0,0,1-.191-2.025.36.36,0,0,0-.356-.41c-.618,0-.853.7-1.059,1.324-.091.273-.26.78-.378.832-.217,0-.358-.639-.359-1.078a.359.359,0,0,0-.359-.359h0a.359.359,0,0,0-.359.359c0,.829.282,1.8,1.078,1.8.592,0,.832-.646,1.033-1.246a2.252,2.252,0,0,0,.408,1.277.922.922,0,0,0,.715.328,1.367,1.367,0,0,0,1.093-.506,1.655,1.655,0,0,0,.133-.2,1.34,1.34,0,0,0,.753.565,1.035,1.035,0,0,0,.254.032,1.14,1.14,0,0,0,.782-.334,1.056,1.056,0,0,0,.12-.145.969.969,0,0,0,.265.04,1.454,1.454,0,0,0,.745-.229.359.359,0,0,0-.386-.606.763.763,0,0,1-.407.107,3.708,3.708,0,0,0-.272-1.181,5.007,5.007,0,0,1-.186-.6c.03.025.059.051.084.076a.359.359,0,0,0,.508,0,.347.347,0,0,0,.052-.079c.372.513,1.138,1.591,1.926,2.834.15,1.528.282,3.476.282,5.614a.359.359,0,0,0,.719,0Z" transform="translate(-189.469 -165.325)" fill="#f5f5f5"/>
      <path id="Path_1477" data-name="Path 1477" d="M293.946,167.512a.359.359,0,1,0,.719,0,3.665,3.665,0,0,0-.4-1.239.359.359,0,0,0-.643.321A3.189,3.189,0,0,1,293.946,167.512Z" transform="translate(-273.724 -165.334)" fill="#f5f5f5"/>
      <path id="Path_1478" data-name="Path 1478" d="M264.228,250.347a.359.359,0,0,0-.482.158,1.029,1.029,0,0,1-.149.213,2.006,2.006,0,0,1,.095-.665.359.359,0,0,0-.6-.36l-.719.719a.359.359,0,0,0,.508.508l.018-.018a.743.743,0,0,0,.192.378.657.657,0,0,0,.467.206.644.644,0,0,0,.1-.008,1.169,1.169,0,0,0,.728-.651A.358.358,0,0,0,264.228,250.347Z" transform="translate(-245.641 -240.225)" fill="#f5f5f5"/>
      <path id="Path_1479" data-name="Path 1479" d="M176.711,206.887h-2.532q.034-.134.069-.256c1.01-.21,1.61-.536,1.786-.971a.8.8,0,0,0-.135-.806.891.891,0,0,0-.908-.387c-.511.1-.965.654-1.292,1.534a4.129,4.129,0,0,0-2.075.9,5.568,5.568,0,0,0-.745-2.389.359.359,0,1,0-.6.4,5.188,5.188,0,0,1,.658,2.675c0,1.64-1.308,2.874-2.156,2.874-.4,0-.58-.48-.658-.885a4.126,4.126,0,0,0,1.725-1.9,2.857,2.857,0,0,0-.239-1.948l-.027-.062.022.021a.359.359,0,0,0,.508-.508c-.21-.21-.618-.54-.989-.385a.611.611,0,0,0-.343.639,1.527,1.527,0,0,0,.167.577,2.172,2.172,0,0,1,.2,1.491,3.04,3.04,0,0,1-1.176,1.3.353.353,0,0,0-.272-.132h0a.359.359,0,0,0-.359.359c0,.065,0,.134.007.2a18.889,18.889,0,0,1-2.312,1.265.359.359,0,0,0,.149.686.354.354,0,0,0,.148-.032,20.692,20.692,0,0,0,2.146-1.149,1.4,1.4,0,0,0,1.3,1.181,3.052,3.052,0,0,0,2.4-1.757,2.09,2.09,0,0,0,.24.343,4.049,4.049,0,0,0,2.746,1.055.359.359,0,0,0,.026-.717.769.769,0,0,1-.448-.218.616.616,0,0,1-.118-.472c.037-.443,1.465-.774,2.724-.793a.36.36,0,0,0,.333-.239l.359-1.01a.36.36,0,0,0-.338-.48Zm-1.577-1.716a.129.129,0,0,1,.027,0c.034,0,.089.017.161.114.014.018.057.081.046.108-.041.1-.289.27-.806.422C174.789,205.369,175.012,205.2,175.134,205.171Zm-2.17,4.723a2.2,2.2,0,0,1-.995-.6,1.527,1.527,0,0,1-.319-1.265,1.055,1.055,0,0,1,.075-.152c.506-.046,1.858.153,1.951.54a1.207,1.207,0,0,0-.76.937A1.516,1.516,0,0,0,172.964,209.894Z" transform="translate(-158.264 -199.656)" fill="#f5f5f5"/>
      <path id="Path_1480" data-name="Path 1480" d="M292.963,167.394l-.359-1.078a.359.359,0,0,0-.7.149c.248,2.479.717,7.314.717,7.869,0,.5-.886,1.478-2.317,2.194a.359.359,0,0,0,.321.643c1.307-.654,2.714-1.82,2.714-2.836,0-.531-.367-4.35-.578-6.5A.36.36,0,0,0,292.963,167.394Z" transform="translate(-270.604 -165.329)" fill="#f5f5f5"/>
      <path id="Path_1481" data-name="Path 1481" d="M336.529,194.982a.359.359,0,0,0,.6-.343,1.812,1.812,0,0,1-.052-.7.365.365,0,0,0,.373-.308.359.359,0,0,0-.3-.407.649.649,0,0,0-.592.2.821.821,0,0,0-.181.386l-.416-.416a.359.359,0,0,0-.508.508Z" transform="translate(-311.172 -189.676)" fill="#f5f5f5"/>
      <path id="Path_1482" data-name="Path 1482" d="M341.626,213.331l-1.347.966a.359.359,0,1,0,.419.584l1.347-.966a.359.359,0,1,0-.419-.584Z" transform="translate(-315.461 -207.649)" fill="#f5f5f5"/>
      <path id="Path_1483" data-name="Path 1483" d="M352.818,225.8a.359.359,0,0,0,.032.477,1,1,0,0,1,.073.517.359.359,0,0,0,.346.372h.013a.36.36,0,0,0,.359-.346c.026-.733-.214-1-.318-1.083A.359.359,0,0,0,352.818,225.8Z" transform="translate(-326.772 -218.768)" fill="#f5f5f5"/>
      <path id="Path_1484" data-name="Path 1484" d="M327.868,175.014a.359.359,0,0,0,.359-.359c0-.53-.027-1.122-.072-1.738a13.11,13.11,0,0,1,.842,1.565.359.359,0,0,0,.33.218.354.354,0,0,0,.141-.029.359.359,0,0,0,.189-.472,19.768,19.768,0,0,0-1.644-2.834c-.141-1.319-.325-2.611-.468-3.538a.347.347,0,0,0,.224-.056.355.355,0,0,0,.159-.325.35.35,0,0,0,.04.1,1.307,1.307,0,0,1,.131.88.359.359,0,0,0,.279.424.379.379,0,0,0,.073.007.36.36,0,0,0,.352-.287,2.037,2.037,0,0,0-.228-1.411.36.36,0,0,0-.5-.11.356.356,0,0,0-.16.325.351.351,0,0,0-.04-.1l-.606-.943a.359.359,0,0,0-.656.256c.005.028.28,1.6.523,3.505-.275-.389-.551-.769-.818-1.132-.043-.544-.087-1.046-.125-1.462a.36.36,0,0,0,.219-.505l-.359-.719a.359.359,0,0,0-.679.2c.043.429.087.9.131,1.4-.227-.3-.438-.574-.617-.806a.36.36,0,0,0-.074-.594l-.719-.359a.359.359,0,0,0-.441.546c.019.024.9,1.133,1.962,2.564a28.894,28.894,0,0,1,.133,5.361c-.032.095-.087.206-.139.21-.217.03-.735-.455-1-.976a.5.5,0,0,0-.481-.326c-.386.024-.537.449-.811,1.22a5.061,5.061,0,0,1-.714,1.521,4.08,4.08,0,0,1-.447-1.415.357.357,0,0,0,.694-.121c0-.536-.375-4.617-.584-6.853a.359.359,0,0,0,.206-.447l-.359-1.078a.359.359,0,0,0-.7.148c.244,2.563.7,7.514.716,8.2,0-.006,0-.012,0-.018a.359.359,0,1,0-.711.1c.1.734.373,2,.99,2.2a.6.6,0,0,0,.191.031.706.706,0,0,0,.506-.234,5.181,5.181,0,0,0,.89-1.8c.053-.149.115-.325.174-.476.33.481.9,1.081,1.487,1.034a.882.882,0,0,0,.769-.7,20.238,20.238,0,0,0-.013-4.486c.3.424.606.859.895,1.288.112,1.076.192,2.154.192,3.039A.359.359,0,0,0,327.868,175.014Z" transform="translate(-298.687 -165.336)" fill="#f5f5f5"/>
      <path id="Path_1485" data-name="Path 1485" d="M384.163,173.511c-.254-1.9-.609-4.093-.834-5.441a.354.354,0,0,0,.3-.064.359.359,0,0,0,.068-.5l-.651-.853a.359.359,0,0,0-.64.28c.007.037.647,3.725,1.043,6.677a3.368,3.368,0,0,1-.592,2.7,1.589,1.589,0,0,1-1.318.491.359.359,0,1,0-.045.717c.061,0,.121.006.18.006a2.268,2.268,0,0,0,1.709-.724A4.012,4.012,0,0,0,384.163,173.511Z" transform="translate(-352.255 -165.722)" fill="#f5f5f5"/>
      <path id="Path_1486" data-name="Path 1486" d="M371.112,256.247a.364.364,0,0,0,.018.5.151.151,0,0,1,.043.074.169.169,0,0,1-.054.08.359.359,0,1,0,.508.508.815.815,0,0,0,.264-.613.855.855,0,0,0-.282-.585A.356.356,0,0,0,371.112,256.247Z" transform="translate(-343.156 -246.09)" fill="#f5f5f5"/>
      <path id="Path_1487" data-name="Path 1487" d="M166.233,327.339h-2.515v-.359a.359.359,0,1,0-.719,0v.359H143.957a5.016,5.016,0,0,0,3.234,1.078H163v.719a.359.359,0,0,0,.359.359h2.874a1.078,1.078,0,1,0,0-2.156Zm0,1.437h-2.515v-.359h2.874l-.065-.193a.348.348,0,0,1,.065.193A.36.36,0,0,1,166.233,328.776Z" transform="translate(-139.545 -309.302)" fill="#f5f5f5"/>
    </g>
  </g>
</svg>
